<svg xmlns="http://www.w3.org/2000/svg" viewBox="0 0 32 32" width="32" height="32">
  <rect width="32" height="32" rx="6" fill="#FAF8F4"/>
  <path d="M16 22 Q14 17 12 13" stroke="#3D2E1E" stroke-width="1.2" fill="none" stroke-linecap="round"/>
  <path d="M16 22 Q18 17 20 13" stroke="#3D2E1E" stroke-width="1.2" fill="none" stroke-linecap="round"/>
  <path d="M12 13 Q14 9 16 7" stroke="#3D2E1E" stroke-width="1.2" fill="none" stroke-linecap="round"/>
  <path d="M20 13 Q18 9 16 7" stroke="#3D2E1E" stroke-width="1.2" fill="none" stroke-linecap="round"/>
  <ellipse cx="10" cy="12" rx="2.2" ry="1.2" transform="rotate(-35 10 12)" fill="#3D2E1E"/>
  <ellipse cx="8.5" cy="15.5" rx="2" ry="1.1" transform="rotate(-50 8.5 15.5)" fill="#3D2E1E"/>
  <ellipse cx="13" cy="9.5" rx="2" ry="1" transform="rotate(-20 13 9.5)" fill="#3D2E1E"/>
  <ellipse cx="22" cy="12" rx="2.2" ry="1.2" transform="rotate(35 22 12)" fill="#3D2E1E"/>
  <ellipse cx="23.5" cy="15.5" rx="2" ry="1.1" transform="rotate(50 23.5 15.5)" fill="#3D2E1E"/>
  <ellipse cx="19" cy="9.5" rx="2" ry="1" transform="rotate(20 19 9.5)" fill="#3D2E1E"/>
  <circle cx="16" cy="5.5" r="1" fill="#3D2E1E"/>
  <circle cx="10" cy="8" r="0.7" fill="#3D2E1E"/>
  <circle cx="22" cy="8" r="0.7" fill="#3D2E1E"/>
  <path d="M12.5 20 Q12 17.5 14 17 Q16 16.5 18 17 Q20 17.5 19.5 20 Q18.5 23 16 23 Q13.5 23 12.5 20Z"
        stroke="#3D2E1E" stroke-width="1" fill="none"/>
  <path d="M13 17.5 L12 15.5 L14.5 17" stroke="#3D2E1E" stroke-width="0.9" fill="none" stroke-linejoin="round"/>
  <path d="M19 17.5 L20 15.5 L17.5 17" stroke="#3D2E1E" stroke-width="0.9" fill="none" stroke-linejoin="round"/>
  <circle cx="14.5" cy="19.5" r="0.6" fill="#3D2E1E"/>
  <circle cx="17.5" cy="19.5" r="0.6" fill="#3D2E1E"/>
  <ellipse cx="16" cy="21" rx="0.5" ry="0.35" fill="#3D2E1E"/>
  <circle cx="24" cy="20" r="0.8" fill="#3D2E1E"/>
  <circle cx="25.5" cy="22.5" r="0.5" fill="#3D2E1E"/>
</svg>
